<?xml version="1.0" encoding="utf-8"?>
<!-- Generator: Adobe Illustrator 25.3.1, SVG Export Plug-In . SVG Version: 6.00 Build 0)  -->
<svg version="1.1" id="Layer_1" xmlns="http://www.w3.org/2000/svg" xmlns:xlink="http://www.w3.org/1999/xlink" x="0px" y="0px"
	 viewBox="0 0 900 200" style="enable-background:new 0 0 900 200;" xml:space="preserve">
<style type="text/css">
	.st0{fill:#FFFFFF;}
</style>
<path class="st0" d="M46.04,42.02c-3.07,0-6.36,0.12-9.87,0.35c-7.51,0.47-13.1,1.63-16.78,3.46c-3.68,1.83-6.71,5-9.1,9.49
	c-2.19,4.14-3.87,9.76-5.04,16.86l-1.68-0.18l1.32-32.74h98.91l1.32,32.74l-1.68,0.18c-1.32-8.22-3.38-14.45-6.18-18.68
	c-2.8-4.23-6.89-7.26-12.25-9.1c-4.53-1.6-12.21-2.4-23.03-2.4v90.51c0,6.03,0.28,10.51,0.84,13.44c0.56,2.93,1.6,5.34,3.11,7.23
	c1.36,1.72,2.91,2.96,4.64,3.73c1.73,0.77,3.98,1.24,6.76,1.42v2.04H30.62v-2.04c2.83-0.18,5.1-0.65,6.84-1.42
	c1.73-0.77,3.28-2.01,4.64-3.73c1.51-1.89,2.55-4.29,3.11-7.19c0.56-2.9,0.84-7.39,0.84-13.49V42.02z"/>
<path class="st0" d="M154.22,74.37v1.45c-2.45,0.13-4.44,0.46-5.97,1.01c-1.53,0.55-2.89,1.43-4.1,2.65c-1.68,1.68-2.71,4.01-3.1,7
	c-0.26,2.23-0.39,4.79-0.39,7.69v46.44c0,3.49,0.17,6.24,0.52,8.25c0.34,2.02,0.9,3.63,1.68,4.85c1.12,1.68,2.56,2.93,4.32,3.75
	c1.76,0.82,4.11,1.31,7.03,1.48v1.45h-41.22v-1.45c2.49-0.13,4.5-0.47,6.03-1.04c1.53-0.57,2.87-1.44,4.03-2.61
	c1.38-1.35,2.3-3.05,2.77-5.1c0.47-2.06,0.71-5.25,0.71-9.58V94.16c0-4.33-0.24-7.52-0.71-9.58c-0.47-2.06-1.4-3.76-2.77-5.1
	c-1.16-1.22-2.52-2.1-4.06-2.65c-1.55-0.55-3.55-0.88-6-1.01v-1.45H154.22z"/>
<path class="st0" d="M188.21,115.46v25.14c0,4.29,0.24,7.45,0.71,9.48c0.47,2.04,1.38,3.75,2.71,5.14c1.16,1.22,2.53,2.11,4.1,2.68
	c1.57,0.57,3.58,0.91,6.03,1.04v1.45h-41.22v-1.45c2.06,0,4.02-0.33,5.87-0.98c1.85-0.65,3.29-1.52,4.32-2.62
	c1.2-1.3,2.06-3.09,2.58-5.36c0.52-2.27,0.77-5.4,0.77-9.39V94.16c0-2.69-0.15-5.48-0.45-8.38c-0.43-3.7-2.28-6.45-5.55-8.26
	c-1.81-0.97-4.32-1.53-7.55-1.7v-1.45h67.41l1.87,20.48l-1.48,0.32c-1.08-3.19-2.06-5.59-2.97-7.18c-2.02-3.65-4.86-6.49-8.52-8.51
	c-2.11-1.18-4.54-1.99-7.29-2.46c-2.75-0.46-6.54-0.69-11.35-0.69h-10v37.18h2.58c7.61,0,13.14-1.66,16.58-4.98
	c1.5-1.43,2.64-3.12,3.42-5.07c0.77-1.95,1.29-4.51,1.55-7.66l1.48,0.06l-0.39,38.19h-1.55c-0.47-4.29-1.28-7.59-2.42-9.92
	s-2.87-4.21-5.19-5.64c-1.72-1.05-3.84-1.82-6.35-2.3C195.41,115.7,192.17,115.46,188.21,115.46z"/>
<path class="st0" d="M260.14,115.46v25.14c0,4.29,0.24,7.45,0.71,9.48c0.47,2.04,1.38,3.75,2.71,5.14c1.16,1.22,2.53,2.11,4.1,2.68
	c1.57,0.57,3.58,0.91,6.03,1.04v1.45h-41.22v-1.45c2.06,0,4.02-0.33,5.87-0.98c1.85-0.65,3.29-1.52,4.32-2.62
	c1.2-1.3,2.06-3.09,2.58-5.36c0.52-2.27,0.77-5.4,0.77-9.39V94.16c0-2.69-0.15-5.48-0.45-8.38c-0.43-3.7-2.28-6.45-5.55-8.26
	c-1.81-0.97-4.32-1.53-7.55-1.7v-1.45h67.41l1.87,20.48l-1.48,0.32c-1.08-3.19-2.06-5.59-2.97-7.18c-2.02-3.65-4.86-6.49-8.52-8.51
	c-2.11-1.18-4.54-1.99-7.29-2.46c-2.75-0.46-6.54-0.69-11.35-0.69h-10v37.18h2.58c7.61,0,13.14-1.66,16.58-4.98
	c1.5-1.43,2.64-3.12,3.42-5.07c0.77-1.95,1.29-4.51,1.55-7.66l1.48,0.06l-0.39,38.19h-1.55c-0.47-4.29-1.28-7.59-2.42-9.92
	s-2.87-4.21-5.19-5.64c-1.72-1.05-3.84-1.82-6.35-2.3C267.34,115.7,264.1,115.46,260.14,115.46z"/>
<path class="st0" d="M394.2,160.39h-42.38v-1.45c3.83-0.34,6.49-0.97,8-1.89c2.67-1.64,4-3.91,4-6.81c0-1.72-0.6-4.03-1.81-6.93
	l-1.1-2.65l-6.19-14.87h-28.39l-3.35,8.7l-1.61,3.91c-1.94,4.62-2.9,8.25-2.9,10.9c0,1.55,0.35,3,1.06,4.35
	c0.71,1.35,1.67,2.44,2.87,3.28c1.68,1.14,3.83,1.81,6.45,2.02v1.45h-28.9v-1.45c2.28-0.13,4.28-0.67,6-1.64
	c1.72-0.97,3.4-2.52,5.03-4.66c1.38-1.72,2.72-3.94,4.03-6.65c1.31-2.71,3.04-6.77,5.19-12.19l23.61-59.42h3.68l28.06,66.23
	c2.11,5,3.78,8.57,5.03,10.71c1.25,2.14,2.6,3.76,4.06,4.85c1.03,0.76,2.21,1.33,3.55,1.73c1.33,0.4,3.33,0.75,6,1.04V160.39z
	 M353.69,123.21l-13.55-32.64l-12.77,32.64H353.69z"/>
<path class="st0" d="M412.2,85.77v54.82c0,4.33,0.25,7.52,0.74,9.58c0.49,2.06,1.41,3.76,2.74,5.1c1.2,1.22,2.57,2.1,4.1,2.65
	c1.53,0.55,3.52,0.88,5.97,1.01v1.45h-29.74v-1.45c2.45-0.13,4.44-0.46,5.97-1.01c1.53-0.55,2.89-1.43,4.1-2.65
	c1.33-1.35,2.25-3.06,2.74-5.14c0.49-2.08,0.74-5.26,0.74-9.55V94.09c0-4.24-0.25-7.4-0.74-9.48c-0.5-2.08-1.41-3.79-2.74-5.14
	c-1.16-1.22-2.51-2.1-4.03-2.65c-1.53-0.55-3.54-0.88-6.03-1.01v-1.45h24.84l52.38,65.29v-45.5c0-4.33-0.25-7.52-0.74-9.58
	c-0.49-2.06-1.41-3.76-2.74-5.1c-1.21-1.22-2.57-2.1-4.1-2.65c-1.53-0.55-3.52-0.88-5.97-1.01v-1.45h29.74v1.45
	c-4.3,0-7.66,1.22-10.06,3.65c-1.33,1.35-2.25,3.06-2.74,5.14s-0.74,5.24-0.74,9.48v66.29h-2.9L412.2,85.77z"/>
<path class="st0" d="M516.84,160.39v-1.45c2.45-0.13,4.45-0.46,6-1.01c1.55-0.55,2.92-1.43,4.13-2.65c1.33-1.35,2.24-3.05,2.71-5.1
	c0.47-2.06,0.71-5.25,0.71-9.58l0.06-12.29c0-1.76-0.37-3.72-1.1-5.86c-0.82-2.48-2.49-5.59-5.03-9.33l-16.71-24.51l-2.97-4.41
	c-2.19-3.19-4.34-5.38-6.45-6.55c-1.08-0.63-2.15-1.07-3.23-1.32c-1.08-0.25-2.58-0.42-4.52-0.5v-1.45h42.06v1.45
	c-3.57,0.21-5.85,0.53-6.84,0.95c-2.41,1.01-3.61,2.84-3.61,5.48c0,0.97,0.27,2.06,0.81,3.28c0.54,1.22,1.41,2.75,2.61,4.6
	l17.48,26.72l14.97-22.81l1.68-2.58c1.59-2.44,2.39-4.83,2.39-7.18c0-2.69-0.88-4.77-2.65-6.24c-1.76-1.47-4.24-2.21-7.42-2.21
	v-1.45h29.68v1.45c-2.24,0.25-3.96,0.62-5.16,1.1c-1.2,0.48-2.43,1.27-3.68,2.36c-2.92,2.69-6.17,6.7-9.74,12.04l-14.71,21.93
	c-1.76,2.61-2.84,4.52-3.23,5.73c-0.39,1.22-0.58,3.28-0.58,6.18v15.44c0,4.49,0.23,7.72,0.68,9.67c0.45,1.95,1.36,3.62,2.74,5.01
	c2.37,2.44,5.74,3.65,10.13,3.65v1.45H516.84z"/>
<path class="st0" d="M627.2,96.08l25.47,34.5c3.55-6.48,6.04-11.45,7.46-14.91c1.42-3.46,2.13-6.41,2.13-8.83
	c0-4.8-3.53-7.69-10.58-8.68V96.6h29.61v1.49c-2.34,0.2-4.24,0.58-5.71,1.15c-1.47,0.57-2.87,1.45-4.19,2.64
	c-2.59,2.38-5.78,7.43-9.59,15.17l-2.36,4.76c-1.27,2.68-3.12,6.17-5.55,10.48c1.93,2.48,4.2,5.14,6.81,7.99
	c2.61,2.85,4.93,5.19,6.96,7.03c2.89,2.58,5.42,4.45,7.57,5.61c2.15,1.16,4.25,1.75,6.28,1.75c2.18,0,4.01-0.6,5.48-1.78
	c1.47-1.19,2.77-3.12,3.88-5.8l1.52,0.67c-2.54,8.43-7.99,12.64-16.37,12.64c-2.79,0-5.71-0.52-8.76-1.56
	c-3.05-1.04-5.81-2.48-8.3-4.31c-3.81-2.77-7.74-6.52-11.8-11.23c-2.23,3.17-4.06,5.55-5.48,7.14c-2.95,3.22-6.39,5.69-10.33,7.4
	c-3.94,1.71-8.14,2.57-12.61,2.57c-4.11,0-8.09-0.74-11.92-2.23s-6.97-3.52-9.41-6.1c-4.52-4.71-6.78-10.65-6.78-17.84
	c0-7.09,2.18-13.53,6.54-19.33c1.72-2.28,3.79-4.42,6.2-6.43c2.41-2.01,5.72-4.35,9.93-7.03l1.22-0.82
	c-3.15-4.36-5.38-7.81-6.7-10.33c-3.1-5.85-4.64-11.08-4.64-15.69c0-2.87,0.71-5.72,2.13-8.55c1.78-3.72,4.4-6.54,7.85-8.48
	c3.46-1.93,7.6-2.9,12.43-2.9c6.3,0,11.49,1.67,15.55,5.02c4.07,3.35,6.1,7.65,6.1,12.9c0,3.87-1.04,7.3-3.13,10.3
	c-2.08,3-5.47,5.94-10.15,8.81C630.68,93.77,628.42,95.23,627.2,96.08z M616.22,102.69c-4.19,2.53-7.44,6.05-9.76,10.56
	c-2.32,4.51-3.48,9.54-3.48,15.09c0,3.82,0.61,7.51,1.83,11.08c1.22,3.57,2.87,6.59,4.95,9.07c1.93,2.23,4.25,3.97,6.96,5.2
	c2.71,1.24,5.57,1.86,8.56,1.86c4.72,0,8.93-1.44,12.63-4.31c1.37-1.09,2.61-2.31,3.73-3.64c1.12-1.34,2.51-3.3,4.18-5.87
	L616.22,102.69z M625.75,94.44c2.38-1.83,4.16-3.44,5.36-4.83c1.19-1.39,2.24-3.05,3.15-4.98c1.77-3.67,2.66-7.61,2.66-11.82
	c0-4.96-1.21-8.9-3.64-11.82c-2.43-2.92-5.69-4.39-9.79-4.39c-3.54,0-6.4,1.12-8.58,3.35c-2.18,2.23-3.26,5.13-3.26,8.7
	c0,2.13,0.44,4.26,1.33,6.39c0.88,2.13,2.56,5.06,5.04,8.77C620.39,87.38,622.97,90.92,625.75,94.44z"/>
<path class="st0" d="M781.85,50.3l0.87,35h-1.67c-0.54-1.51-0.95-2.66-1.24-3.45c-1.7-5.01-3.08-8.74-4.15-11.2
	c-1.89-4.38-4.63-8.4-8.23-12.06c-2.72-2.77-5.53-4.78-8.44-6.03c-2.91-1.25-6.19-1.88-9.83-1.88c-5.49,0-10.24,1.28-14.27,3.84
	c-3.54,2.25-6.84,5.47-9.9,9.67c-3.06,4.2-5.56,8.99-7.5,14.37c-2.77,7.57-4.15,16.18-4.15,25.84c0,8.2,0.95,15.58,2.84,22.16
	c1.89,6.58,4.66,12.08,8.3,16.52c6.7,8.25,15.58,12.37,26.64,12.37c5.53,0,10.51-1.03,14.92-3.09c4.42-2.06,7.84-4.97,10.26-8.73
	c2.81-4.33,4.85-10.18,6.11-17.54l1.67,0.31c-0.92,8.25-3.01,14.8-6.26,19.65c-3.11,4.65-7.39,8.2-12.85,10.65
	c-5.46,2.45-11.78,3.68-18.96,3.68c-6.7,0-13.1-1.07-19.22-3.21c-9.76-3.45-17.38-9.67-22.86-18.67c-5.49-9-8.23-19.75-8.23-32.22
	c0-9.55,1.6-18.36,4.81-26.43c3.2-8.06,7.67-14.55,13.39-19.46c4.42-3.76,9.69-6.75,15.83-8.97c6.14-2.22,12.29-3.33,18.45-3.33
	c5.87,0,12.09,1.2,18.64,3.6l5.97,2.11c1.16,0.47,2.18,0.7,3.06,0.7c1.21,0,2.21-0.55,2.98-1.64c0.34-0.52,0.75-1.38,1.24-2.58
	H781.85z"/>
<path class="st0" d="M795.65,118.05c0-6.71,1.36-12.92,4.08-18.65s6.69-10.73,11.91-15c3.89-3.15,8.09-5.58,12.59-7.28
	c4.5-1.7,9.03-2.55,13.61-2.55c5.82,0,11.45,1.35,16.9,4.04c5.44,2.7,10.21,6.5,14.29,11.41c6.65,7.98,9.98,17.07,9.98,27.25
	c0,5.11-0.87,10.04-2.61,14.79c-1.74,4.75-4.27,9.08-7.6,13c-4.08,4.87-8.91,8.64-14.49,11.32c-5.58,2.67-11.41,4.01-17.49,4.01
	c-6.01,0-11.76-1.3-17.24-3.89c-5.48-2.59-10.21-6.27-14.18-11.02c-3.14-3.71-5.55-7.93-7.23-12.67
	C796.49,128.08,795.65,123.16,795.65,118.05z M809.37,118.94c0,11.58,2.99,21.34,8.96,29.29c2.68,3.55,5.53,6.14,8.53,7.76
	c3.01,1.62,6.47,2.43,10.4,2.43c3.97,0,7.46-0.8,10.46-2.4s5.87-4.19,8.59-7.79c5.97-7.98,8.96-17.83,8.96-29.52
	c0-6.43-0.82-12.51-2.47-18.24c-1.64-5.73-3.96-10.59-6.95-14.58c-2.42-3.27-5.11-5.66-8.08-7.16c-2.97-1.5-6.47-2.25-10.52-2.25
	c-4.01,0-7.48,0.74-10.4,2.22c-2.93,1.48-5.64,3.87-8.14,7.19c-2.99,3.95-5.29,8.8-6.92,14.55
	C810.18,106.19,809.37,112.36,809.37,118.94z"/>
<circle class="st0" cx="888.04" cy="152.69" r="7.7"/>
</svg>
